<svg width="33" height="32" viewBox="0 0 33 32" fill="none" xmlns="http://www.w3.org/2000/svg">
<path d="M16.5362 18.9918C18.1168 18.9918 19.398 17.7105 19.398 16.13C19.398 14.5495 18.1168 13.2682 16.5362 13.2682C14.9557 13.2682 13.6745 14.5495 13.6745 16.13C13.6745 17.7105 14.9557 18.9918 16.5362 18.9918Z" fill="#8BC541"/>
<path d="M20.1136 9.10571H12.9592C11.9186 9.10571 11.008 9.43092 10.4226 10.0163C9.83728 10.6016 9.51208 11.5122 9.51208 12.5529V19.7073C9.51208 20.748 9.83728 21.6586 10.4877 22.309C11.1381 22.8943 11.9836 23.2195 13.0242 23.2195H20.1136C21.1542 23.2195 22.0648 22.8943 22.6501 22.309C23.3005 21.7236 23.6257 20.813 23.6257 19.7724V12.6179C23.6257 11.5773 23.3005 10.7317 22.7152 10.0813C22.0648 9.43092 21.2192 9.10571 20.1136 9.10571ZM16.5364 20.5529C14.0649 20.5529 12.1137 18.5366 12.1137 16.1301C12.1137 13.6586 14.1299 11.7073 16.5364 11.7073C18.9429 11.7073 21.0241 13.6586 21.0241 16.1301C21.0241 18.6016 19.0079 20.5529 16.5364 20.5529ZM21.1542 12.5529C20.5688 12.5529 20.1136 12.0976 20.1136 11.5122C20.1136 10.9269 20.5688 10.4716 21.1542 10.4716C21.7396 10.4716 22.1948 10.9269 22.1948 11.5122C22.1948 12.0976 21.7396 12.5529 21.1542 12.5529Z" fill="#8BC541"/>
<path d="M16.6665 0C7.82106 0 0.666687 7.15447 0.666687 16C0.666687 24.8455 7.82106 32 16.6665 32C25.5119 32 32.6663 24.8455 32.6663 16C32.7313 7.15447 25.5119 0 16.6665 0ZM25.1867 19.7724C25.1867 21.2683 24.6664 22.5691 23.7558 23.4797C22.8452 24.3902 21.5444 24.8455 20.1136 24.8455H13.0242C11.5934 24.8455 10.2926 24.3902 9.38202 23.4797C8.40642 22.5691 7.95114 21.2683 7.95114 19.7724V12.6179C7.95114 9.62602 9.96737 7.54471 13.0242 7.54471H20.1786C21.6745 7.54471 22.9103 8.06504 23.8208 8.97561C24.7314 9.88618 25.1867 11.122 25.1867 12.6179V19.7724Z" fill="#8BC541"/>
</svg>
