<svg width="33" height="32" viewBox="0 0 33 32" fill="none" xmlns="http://www.w3.org/2000/svg">
<path fill-rule="evenodd" clip-rule="evenodd" d="M16.6667 0C25.4973 0 32.6667 7.16938 32.6667 16C32.6667 24.8306 25.4973 32 16.6667 32C7.83606 32 0.666687 24.8306 0.666687 16C0.666687 7.16938 7.83606 0 16.6667 0ZM13.7387 24.44C20.8347 24.44 24.7147 18.56 24.7147 13.464C24.7147 13.296 24.7147 13.128 24.7067 12.968C25.4587 12.424 26.1147 11.744 26.6347 10.968C25.9467 11.272 25.2027 11.48 24.4187 11.576C25.2187 11.096 25.8267 10.344 26.1147 9.44C25.3707 9.88 24.5467 10.2 23.6667 10.376C22.9627 9.624 21.9627 9.16 20.8507 9.16C18.7227 9.16 16.9947 10.888 16.9947 13.016C16.9947 13.32 17.0267 13.616 17.0987 13.896C13.8907 13.736 11.0507 12.2 9.14669 9.864C8.81869 10.432 8.62669 11.096 8.62669 11.8C8.62669 13.136 9.30669 14.32 10.3467 15.008C9.71469 14.992 9.12269 14.816 8.60269 14.528V14.576C8.60269 16.448 9.93069 18 11.6987 18.36C11.3787 18.448 11.0347 18.496 10.6827 18.496C10.4347 18.496 10.1947 18.472 9.95469 18.424C10.4427 19.96 11.8667 21.072 13.5547 21.104C12.2347 22.136 10.5707 22.752 8.76269 22.752C8.45069 22.752 8.14669 22.736 7.84269 22.696C9.53069 23.8 11.5627 24.44 13.7387 24.44Z" fill="#8BC541"/>
</svg>
